<svg width="62" height="21" viewBox="0 0 62 21" fill="none" xmlns="http://www.w3.org/2000/svg">
<path d="M0.358195 10.8176C0.177163 10.1672 0.48894 9.41289 1.29353 8.55466C2.10482 7.69644 3.20777 6.83151 4.60239 5.95987C6.00371 5.08824 7.49554 4.31382 9.0779 3.63663C10.6602 2.95273 12.1353 2.46328 13.5031 2.16826C14.8776 1.86654 15.9403 1.85984 16.6913 2.14815C17.3685 2.46328 17.6669 2.9058 17.5864 3.47571C17.5059 4.03892 17.174 4.62225 16.5907 5.22569C16.0074 5.82913 15.3 6.34205 14.4686 6.76446C13.6439 7.18687 12.8192 7.40813 11.9945 7.42824C11.7464 7.42154 11.6123 7.34443 11.5922 7.19692C11.5721 7.04942 11.619 6.89185 11.733 6.72423C11.847 6.55661 11.9778 6.43592 12.1253 6.36217C12.2795 6.28841 12.4069 6.31523 12.5074 6.44262C12.5141 6.45603 12.5209 6.46944 12.5276 6.48285C12.5544 6.52308 12.5745 6.55996 12.5879 6.59348C12.6013 6.62701 12.5946 6.66724 12.5678 6.71417C12.5678 6.72758 12.5644 6.73764 12.5577 6.74434C12.5376 6.77116 12.5276 6.79128 12.5276 6.80469C12.5276 6.8181 12.5477 6.8248 12.5879 6.8248C13.1042 6.75105 13.6808 6.5432 14.3178 6.20125C14.9614 5.85259 15.5381 5.44695 16.0476 4.98431C16.5572 4.51497 16.879 4.06909 17.0131 3.64669C17.1472 3.21757 16.9695 2.88904 16.4801 2.66107C15.7694 2.39287 14.767 2.40964 13.4729 2.71136C12.1789 3.01308 10.7809 3.49918 9.27904 4.16967C7.77715 4.84016 6.35907 5.58775 5.02479 6.41245C3.69723 7.23045 2.63786 8.02498 1.84668 8.79604C1.06221 9.5671 0.733668 10.2041 0.861061 10.7069C0.988454 10.9885 1.40416 11.1427 2.10817 11.1696C2.81889 11.1897 3.67376 11.1427 4.67279 11.0288C5.67852 10.9081 6.6809 10.7706 7.67993 10.6164C9.10807 10.3952 10.1808 10.2711 10.8983 10.2443C11.0525 10.2376 11.2637 10.2443 11.5319 10.2644C11.8001 10.2778 12.0482 10.3281 12.2761 10.4153C12.5108 10.4957 12.6516 10.6332 12.6985 10.8276C12.7254 11.0757 12.5376 11.3841 12.1353 11.7529C11.733 12.115 11.2268 12.4938 10.6167 12.8894C10.0065 13.2783 9.39973 13.6403 8.79629 13.9756C8.19956 14.3175 7.7168 14.5857 7.34804 14.7801C7.20053 14.8606 7.08655 14.9209 7.00609 14.9612C6.77142 15.0886 6.49316 15.2394 6.17133 15.4138C5.33992 15.8429 4.45153 16.3323 3.50614 16.8821C2.56075 17.4319 1.87015 17.9348 1.43433 18.3907C1.34717 18.4846 1.27006 18.5282 1.20301 18.5215C1.13596 18.5215 1.09573 18.4846 1.08232 18.4108C1.06891 18.3371 1.10244 18.2499 1.1829 18.1494C1.64553 17.6666 2.36296 17.1269 3.33516 16.5301C4.31408 15.9401 5.20247 15.4272 6.00035 14.9914C6.24173 14.8573 6.44958 14.7399 6.62391 14.6393C6.68425 14.6058 6.78818 14.5488 6.93569 14.4684C7.40503 14.2069 8.05875 13.8314 8.89686 13.3419C9.73497 12.8525 10.496 12.3731 11.1799 11.9038C11.8705 11.4344 12.2191 11.0992 12.2258 10.898C12.199 10.8109 12.0716 10.7539 11.8437 10.727C11.6157 10.7002 11.3777 10.6902 11.1296 10.6969C10.8882 10.7036 10.7306 10.7136 10.6569 10.727C10.0669 10.774 9.25222 10.888 8.21297 11.069C7.1603 11.2567 6.06405 11.421 4.92422 11.5618C3.78439 11.7026 2.78872 11.7361 1.93719 11.6624C1.08567 11.5819 0.559341 11.3003 0.358195 10.8176ZM16.118 10.6164C15.8364 10.898 15.5515 11.2802 15.2632 11.7629C14.9815 12.239 14.8206 12.6078 14.7804 12.8693C14.7804 13.0436 14.9313 13.0905 15.233 13.0101C15.5414 12.9363 15.9035 12.8022 16.3192 12.6078C16.7416 12.4066 17.1171 12.2122 17.4456 12.0244C17.7808 11.8367 17.9719 11.7227 18.0189 11.6825C18.1194 11.6087 18.1999 11.5786 18.2602 11.592C18.3206 11.6054 18.3508 11.6389 18.3508 11.6925C18.3508 11.7462 18.3172 11.8032 18.2502 11.8635C18.0624 12.0177 17.7272 12.2356 17.2444 12.5172C16.7617 12.7989 16.2622 13.0369 15.7459 13.2313C15.2296 13.4258 14.8307 13.466 14.5491 13.352C14.2608 13.238 14.2239 12.8659 14.4385 12.2356C14.6195 11.7596 14.9279 11.25 15.3637 10.7069C15.7995 10.1571 16.1951 9.83194 16.5505 9.73137C16.7114 9.70455 16.8422 9.73137 16.9427 9.81183C17.05 9.89229 17.1171 9.99956 17.1439 10.1337C17.1171 10.2812 17.0534 10.3985 16.9528 10.4857C16.8522 10.5661 16.7483 10.6131 16.641 10.6265C16.5337 10.6399 16.4566 10.6131 16.4097 10.546C16.403 10.5259 16.3963 10.5091 16.3896 10.4957C16.3829 10.4689 16.3728 10.4521 16.3594 10.4454C16.346 10.432 16.3192 10.4387 16.2789 10.4656C16.2454 10.4924 16.1918 10.5427 16.118 10.6164ZM19.9599 8.73569C19.7722 8.50773 19.6649 8.28647 19.6381 8.07191C19.6247 7.75008 19.7219 7.52211 19.9298 7.38801C20.1376 7.25391 20.3857 7.2975 20.674 7.51876C20.7813 7.63945 20.8483 7.79031 20.8751 7.97134C20.9087 8.15237 20.8785 8.36022 20.7846 8.59489C20.7444 8.67535 20.7276 8.73905 20.7343 8.78598C20.7477 8.82621 20.798 8.86644 20.8852 8.90667C21.4149 9.14134 21.7803 9.41289 21.9814 9.72131C22.1826 10.0297 22.0921 10.4354 21.7099 10.9382C21.5088 11.1997 21.3177 11.5216 21.1366 11.9038C20.9556 12.2792 20.8986 12.6111 20.9657 12.8994C21.0461 13.0872 21.2573 13.1307 21.5993 13.0302C21.9479 12.9363 22.3301 12.772 22.7458 12.5374C23.1615 12.3027 23.5202 12.0747 23.8219 11.8535C23.9158 11.773 23.9896 11.7361 24.0432 11.7428C24.0968 11.7428 24.1237 11.7697 24.1237 11.8233C24.1304 11.8769 24.1035 11.9339 24.0432 11.9943C23.1514 12.7787 22.3502 13.2514 21.6395 13.4124C20.9288 13.5733 20.503 13.4224 20.3622 12.9598C20.2214 12.4971 20.5567 11.7261 21.3679 10.6466C21.5959 10.3315 21.6294 10.0767 21.4685 9.88223C21.3076 9.68108 21.0629 9.48999 20.7343 9.30896C20.7209 9.30226 20.7109 9.29555 20.7042 9.28885C20.6371 9.24191 20.5768 9.22515 20.5231 9.23856C20.4762 9.24527 20.4125 9.30561 20.332 9.41959C20.2516 9.52687 20.1912 9.60398 20.151 9.65091C20.0437 9.78501 19.9499 9.85876 19.8694 9.87217C19.7889 9.87888 19.7286 9.85206 19.6884 9.79171C19.6549 9.73137 19.6448 9.66432 19.6582 9.59057C19.6783 9.52352 19.7118 9.48664 19.7588 9.47994C19.8057 9.47323 19.9029 9.38607 20.0504 9.21845C20.1175 9.12458 20.1342 9.04077 20.1007 8.96701C20.0739 8.88655 20.027 8.80945 19.9599 8.73569ZM20.4427 8.34346C20.4695 8.17584 20.4527 8.02833 20.3924 7.90094C20.332 7.77354 20.265 7.70985 20.1912 7.70985C20.1175 7.70314 20.084 7.80707 20.0907 8.02162C20.0974 8.05515 20.1175 8.11214 20.151 8.1926C20.1845 8.26635 20.2214 8.33675 20.2616 8.4038C20.3086 8.47085 20.3522 8.50438 20.3924 8.50438C20.4058 8.50438 20.4125 8.49767 20.4125 8.48426C20.4192 8.46415 20.4226 8.44403 20.4226 8.42392C20.4293 8.3971 20.436 8.37028 20.4427 8.34346ZM25.5317 13.181C25.0623 13.637 24.6198 13.8046 24.2041 13.6839C23.7951 13.5632 23.5973 13.2079 23.6107 12.6178C23.6241 12.0211 24.0432 11.2433 24.8679 10.2845C25.183 9.94257 25.4345 9.74478 25.6222 9.69114C25.7764 9.6375 25.8937 9.64421 25.9742 9.71125C26.0547 9.7716 26.058 9.89564 25.9843 10.0834C25.8435 10.2309 25.7295 10.3214 25.6423 10.3549C25.5551 10.3884 25.4847 10.4019 25.4311 10.3952C25.4043 10.3952 25.3775 10.3985 25.3506 10.4052C25.3305 10.4052 25.3104 10.4186 25.2903 10.4454C24.6533 11.2031 24.2645 11.8132 24.1237 12.2759C23.9896 12.7385 24.0097 13.0503 24.184 13.2112C24.3583 13.3788 24.593 13.3855 24.888 13.2313C25.0221 13.1509 25.173 13 25.3406 12.7787C25.5082 12.5575 25.6457 12.3396 25.7529 12.125C25.7731 12.0915 25.7898 12.0647 25.8032 12.0446C25.8233 12.0177 25.8334 11.9943 25.8334 11.9742C25.8334 11.954 25.8166 11.9306 25.7831 11.9038C25.6624 11.7831 25.5585 11.6255 25.4713 11.4311C25.3842 11.2299 25.3674 11.0489 25.421 10.888C25.4747 10.7807 25.5753 10.7337 25.7228 10.7472C25.8703 10.7606 26.0111 10.8377 26.1452 10.9785C26.2793 11.1193 26.3497 11.3305 26.3564 11.6121C26.3698 11.8132 26.4402 11.954 26.5676 12.0345C26.695 12.1083 26.8358 12.1351 26.99 12.115C27.1442 12.0881 27.2716 12.0278 27.3722 11.9339C27.4593 11.8535 27.5197 11.8334 27.5532 11.8736C27.5934 11.9071 27.5901 11.9674 27.5431 12.0546C27.4962 12.1418 27.3923 12.2222 27.2314 12.296C26.9766 12.3966 26.7788 12.4334 26.638 12.4066C26.5039 12.3798 26.4033 12.3429 26.3363 12.296C26.2893 12.2558 26.2458 12.239 26.2055 12.2457C26.1653 12.2457 26.1251 12.2859 26.0848 12.3664C26.0178 12.4871 25.9306 12.6279 25.8233 12.7888C25.7228 12.9497 25.6255 13.0805 25.5317 13.181ZM36.3835 2.6309C37.0205 2.45657 37.2485 2.7013 37.0674 3.36508C36.8931 4.02216 36.4741 4.89044 35.8103 5.96993C35.1532 7.04271 34.4224 8.11214 33.6178 9.17822C32.8199 10.2443 32.1125 11.0958 31.4957 11.7328C31.3348 11.8937 31.1839 12.0378 31.0431 12.1652C30.8688 12.306 30.6944 12.4703 30.5201 12.6581C30.3458 12.8458 30.158 13.1039 29.9569 13.4325C27.1006 17.9784 25.639 20.2748 25.5719 20.3217C25.4982 20.3687 25.4278 20.3754 25.3607 20.3418C25.2937 20.315 25.2635 20.2614 25.2702 20.1809C25.2836 20.1273 25.3406 20.0033 25.4412 19.8088C25.5417 19.6211 26.6715 17.737 28.8305 14.1566C28.8908 14.0359 28.9478 13.932 29.0015 13.8448C29.1154 13.6504 29.1691 13.533 29.1624 13.4928C29.1624 13.4526 29.0517 13.523 28.8305 13.704C28.6562 13.8515 28.398 14.0091 28.0561 14.1767C27.7141 14.351 27.3688 14.465 27.0202 14.5187C26.6715 14.579 26.3966 14.5052 26.1955 14.2974C26.0949 14.1432 26.1049 13.9353 26.2256 13.6738C26.3396 13.4191 26.4637 13.1911 26.5978 12.9899C26.6246 12.9497 26.648 12.9128 26.6682 12.8793C26.9229 12.4033 27.4325 11.5216 28.1969 10.2342C28.9679 8.94019 29.8262 7.53887 30.7715 6.03027C31.7236 4.52167 32.5919 3.20752 33.3764 2.0878C34.1609 0.961381 34.6939 0.334475 34.9755 0.207082C35.4247 0.0796892 35.646 0.19032 35.6393 0.538974C35.6393 0.880923 35.5153 1.3268 35.2672 1.8766C35.0191 2.4264 34.7576 2.94267 34.4827 3.42543C34.2145 3.90147 34.0335 4.2099 33.9396 4.3507C33.9329 4.3574 33.9295 4.36411 33.9295 4.37081C32.8702 6.08056 31.7672 7.71655 30.6207 9.27879C29.4809 10.8343 28.512 11.8736 27.7141 12.3966C27.5331 12.6513 27.3856 12.8625 27.2716 13.0302C27.1509 13.1978 27.0403 13.3721 26.9397 13.5532C26.8861 13.6403 26.8358 13.7241 26.7888 13.8046C26.7419 13.9923 26.8458 14.046 27.1006 13.9655C27.3554 13.8917 27.6873 13.7308 28.0963 13.4828C28.512 13.2347 28.9344 12.9531 29.3635 12.6379C29.5513 12.4971 29.6954 12.3832 29.796 12.296C29.8966 12.2021 29.9804 12.1049 30.0474 12.0043C30.1212 11.9038 30.2117 11.7629 30.319 11.5819C30.3324 11.5484 30.3525 11.5149 30.3793 11.4813C31.0498 10.3415 31.7974 9.10782 32.6221 7.78025C33.4535 6.45268 34.2179 5.29609 34.9152 4.31047C35.6192 3.31815 36.1086 2.75829 36.3835 2.6309ZM28.4584 11.1092C28.3578 11.2701 28.3075 11.364 28.3075 11.3908C28.3075 11.4109 28.3746 11.3372 28.5086 11.1696C29.2395 10.2443 30.0508 9.13463 30.9425 7.84059C31.841 6.53984 32.6657 5.27933 33.4166 4.05904C34.3285 2.56385 34.8548 1.59835 34.9956 1.16253C35.1364 0.72671 34.9487 0.850751 34.4324 1.53465C33.7016 2.53368 32.9842 3.60311 32.2801 4.74294C31.5828 5.87606 30.8956 7.01924 30.2184 8.17248C29.6217 9.18492 29.035 10.1638 28.4584 11.1092ZM35.6292 5.12511C36.0852 4.27359 36.2863 3.79084 36.2327 3.67686C36.1857 3.56288 35.9947 3.74391 35.6594 4.21995C34.942 5.19887 34.3855 5.9934 33.9899 6.60354C33.601 7.21369 33.2121 7.854 32.8232 8.52449C32.4947 9.0877 32.0656 9.80177 31.5359 10.6667C31.4689 10.7807 31.4119 10.8846 31.3649 10.9785C31.3247 11.0723 31.3113 11.126 31.3247 11.1394C31.3381 11.1528 31.3917 11.1059 31.4856 10.9986C33.1015 9.19498 34.4827 7.23715 35.6292 5.12511ZM43.2024 10.3549C42.8806 10.6768 42.4649 11.069 41.9553 11.5316C41.4457 11.9876 40.9194 12.4234 40.3763 12.8391C39.8332 13.2481 39.3572 13.533 38.9482 13.694C38.5325 13.8616 38.2643 13.8079 38.1436 13.533C38.0698 13.285 38.2006 12.8894 38.5358 12.3463C38.8643 11.8032 39.3069 11.2433 39.8634 10.6667C40.4199 10.0901 41.0066 9.62074 41.6234 9.25867C42.2403 8.89661 42.8001 8.76922 43.303 8.8765C43.4371 8.91673 43.5276 8.95696 43.5745 8.99718C43.608 9.0173 43.6382 9.03406 43.665 9.04747C43.6986 9.05418 43.7354 9.04747 43.7757 9.02736C43.8159 9.00054 43.8695 8.9536 43.9366 8.88655C44.1981 8.64518 44.4126 8.42392 44.5803 8.22277C44.7479 8.02162 44.9256 7.76349 45.1133 7.44836C45.6832 6.48956 46.1358 5.75537 46.471 5.2458C46.927 4.54179 47.4466 3.8646 48.0299 3.21422C48.6132 2.56385 49.1228 2.06098 49.5586 1.70562C49.6793 1.60505 49.8235 1.5313 49.9911 1.48436C50.1587 1.43072 50.3096 1.42402 50.4437 1.46425C50.5778 1.49777 50.6549 1.59835 50.675 1.76597C50.6482 1.98052 50.4269 2.39623 50.0112 3.01308C49.3608 3.95846 48.6635 4.84016 47.9193 5.65815C47.1818 6.46944 46.4811 7.18016 45.8173 7.79031C45.5424 8.0585 45.3312 8.28982 45.1837 8.48426C45.0362 8.672 44.8619 8.93684 44.6607 9.27879C43.9768 10.4119 43.2929 11.5283 42.609 12.6279C41.9318 13.7275 41.3619 14.6427 40.8993 15.3735C40.4433 16.1111 40.202 16.4966 40.1751 16.5301C40.1282 16.6039 40.0712 16.6475 40.0042 16.6609C39.9438 16.6743 39.9002 16.6575 39.8734 16.6106C39.8466 16.5636 39.8634 16.4865 39.9237 16.3793C40.3059 15.7155 40.7819 14.8841 41.3519 13.885C42.1967 12.4033 42.8906 11.1997 43.4337 10.2745C43.5745 10.0532 43.6282 9.95263 43.5946 9.97275C43.5611 9.99286 43.4605 10.0867 43.2929 10.2544C43.2661 10.2879 43.2359 10.3214 43.2024 10.3549ZM47.4667 5.3866C48.2311 4.59543 48.9418 3.72379 49.5989 2.7717C49.7531 2.53703 49.8436 2.37946 49.8704 2.29901C49.8972 2.21184 49.8805 2.17832 49.8201 2.19843C49.7665 2.21184 49.686 2.25878 49.5787 2.33923C49.4782 2.41299 49.3742 2.4968 49.267 2.59067C49.1597 2.68454 49.0725 2.765 49.0055 2.83204C48.6501 3.20752 48.2579 3.66345 47.8288 4.19984C47.4064 4.72953 47.0477 5.21898 46.7526 5.66821C46.5314 6.02357 46.3939 6.26494 46.3403 6.39234C46.2866 6.51303 46.2934 6.55325 46.3604 6.51303C46.4275 6.46609 46.5314 6.36887 46.6722 6.22136C46.8197 6.07386 46.9773 5.90959 47.1449 5.72855C47.2522 5.60787 47.3594 5.49388 47.4667 5.3866ZM43.2326 9.27879C42.7699 9.22515 42.2268 9.41959 41.6033 9.86211C40.9797 10.2979 40.3931 10.8109 39.8433 11.4009C39.3002 11.9842 38.918 12.4703 38.6967 12.8592C38.5961 13.0402 38.5392 13.1743 38.5257 13.2615C38.5056 13.3554 38.576 13.3587 38.737 13.2715C39.2197 13.0034 39.8768 12.524 40.7082 11.8334C41.5396 11.136 42.4012 10.3616 43.2929 9.51011C43.36 9.44976 43.3901 9.40283 43.3834 9.36931C43.3767 9.32908 43.3264 9.2989 43.2326 9.27879ZM46.6521 13.181C46.1827 13.637 45.7402 13.8046 45.3245 13.6839C44.9155 13.5632 44.7177 13.2079 44.7311 12.6178C44.7445 12.0211 45.1636 11.2433 45.9883 10.2845C46.3034 9.94257 46.5548 9.74478 46.7426 9.69114C46.8968 9.6375 47.0141 9.64421 47.0946 9.71125C47.175 9.7716 47.1784 9.89564 47.1046 10.0834C46.9638 10.2309 46.8499 10.3214 46.7627 10.3549C46.6755 10.3884 46.6051 10.4019 46.5515 10.3952C46.5247 10.3952 46.4979 10.3985 46.471 10.4052C46.4509 10.4052 46.4308 10.4186 46.4107 10.4454C45.7737 11.2031 45.3848 11.8132 45.244 12.2759C45.1099 12.7385 45.1301 13.0503 45.3044 13.2112C45.4787 13.3788 45.7134 13.3855 46.0084 13.2313C46.1425 13.1509 46.2934 13 46.461 12.7787C46.6286 12.5575 46.766 12.3396 46.8733 12.125C46.8934 12.0915 46.9102 12.0647 46.9236 12.0446C46.9437 12.0177 46.9538 11.9943 46.9538 11.9742C46.9538 11.954 46.937 11.9306 46.9035 11.9038C46.7828 11.7831 46.6789 11.6255 46.5917 11.4311C46.5046 11.2299 46.4878 11.0489 46.5414 10.888C46.5951 10.7807 46.6956 10.7337 46.8432 10.7472C46.9907 10.7606 47.1315 10.8377 47.2656 10.9785C47.3997 11.1193 47.4701 11.3305 47.4768 11.6121C47.4902 11.8132 47.5606 11.954 47.688 12.0345C47.8154 12.1083 47.9562 12.1351 48.1104 12.115C48.2646 12.0881 48.392 12.0278 48.4926 11.9339C48.5797 11.8535 48.6401 11.8334 48.6736 11.8736C48.7138 11.9071 48.7105 11.9674 48.6635 12.0546C48.6166 12.1418 48.5127 12.2222 48.3518 12.296C48.097 12.3966 47.8992 12.4334 47.7584 12.4066C47.6243 12.3798 47.5237 12.3429 47.4566 12.296C47.4097 12.2558 47.3661 12.239 47.3259 12.2457C47.2857 12.2457 47.2454 12.2859 47.2052 12.3664C47.1382 12.4871 47.051 12.6279 46.9437 12.7888C46.8432 12.9497 46.7459 13.0805 46.6521 13.181ZM49.4078 12.1854C48.9652 12.5072 48.6702 12.6312 48.5227 12.5575C48.3819 12.4837 48.3484 12.296 48.4222 11.9943C48.4892 11.6858 48.6233 11.3472 48.8244 10.9785C49.0926 10.4823 49.3005 10.1705 49.448 10.0431C49.5955 9.91575 49.7497 9.9057 49.9106 10.013C49.9911 10.1538 49.9911 10.2912 49.9106 10.4253C49.8369 10.5594 49.7263 10.6868 49.5787 10.8075C49.4178 10.9416 49.3005 11.069 49.2267 11.1897C49.153 11.3104 49.0759 11.4579 48.9954 11.6322C48.9753 11.6858 48.9518 11.7395 48.925 11.7931C48.8647 11.9138 48.8412 11.9909 48.8546 12.0244C48.8747 12.0513 48.9518 12.0077 49.0859 11.8937C49.3139 11.7194 49.5653 11.5082 49.8402 11.2601C50.1084 11.0254 50.3632 10.8142 50.6046 10.6265C50.8527 10.4387 51.0605 10.3281 51.2281 10.2946C51.5969 10.2678 51.845 10.4354 51.9724 10.7974C52.0998 11.1595 52.1802 11.5082 52.2138 11.8434C52.2205 11.9105 52.2272 11.9708 52.2339 12.0244C52.2875 12.3664 52.3579 12.6782 52.4451 12.9598C52.5322 13.2414 52.6362 13.4258 52.7569 13.5129C52.8775 13.6001 53.0552 13.5532 53.2899 13.3721C53.5313 13.1911 53.8632 12.8156 54.2856 12.2457C54.7147 11.6691 55.2611 10.841 55.9249 9.76154C55.9719 9.66767 56.0322 9.61068 56.106 9.59057C56.1864 9.57045 56.2434 9.59057 56.2769 9.65091C56.3172 9.71125 56.3004 9.81183 56.2266 9.95263C56.1328 10.1001 56.0322 10.2678 55.9249 10.4555C55.6098 10.9919 55.2477 11.5685 54.8387 12.1854C54.4297 12.7955 54.014 13.285 53.5916 13.6537C53.1759 14.0292 52.7971 14.1264 52.4551 13.9454C52.1199 13.7711 51.8685 13.1576 51.7008 12.1049C51.6539 11.7562 51.5969 11.4445 51.5299 11.1696C51.4628 10.888 51.3857 10.7438 51.2985 10.7371C51.1712 10.7773 50.97 10.9047 50.6951 11.1193C50.4269 11.3338 50.1621 11.5551 49.9006 11.7831C49.686 11.9641 49.5218 12.0982 49.4078 12.1854ZM56.2769 13.0603C56.411 12.7318 56.6155 12.3329 56.8904 11.8635C57.1586 11.3942 57.4201 10.945 57.6749 10.5158C57.8157 10.2879 57.9364 10.0901 58.037 9.92246C57.9967 9.86882 57.9766 9.81183 57.9766 9.75148C57.9766 9.69114 57.9967 9.6375 58.037 9.59057C58.2113 9.40283 58.3387 9.2989 58.4191 9.27879L58.4392 9.26873C58.4996 9.24862 58.5532 9.24862 58.6002 9.26873C58.7007 9.30226 58.7644 9.36595 58.7913 9.45982C58.7913 9.46653 58.7913 9.47658 58.7913 9.48999C58.7913 9.4967 58.7913 9.5034 58.7913 9.51011C58.7913 9.57045 58.7745 9.6308 58.741 9.69114C58.4929 10.0934 58.2146 10.5527 57.9062 11.069C57.6045 11.5786 57.3363 12.0412 57.1016 12.4569C57.2625 12.3027 57.5207 12.0814 57.876 11.7931C58.2381 11.4981 58.5968 11.2266 58.9522 10.9785C59.3142 10.7237 59.5724 10.5896 59.7266 10.5762C59.968 10.5829 60.1054 10.6801 60.1389 10.8678C60.1725 11.0489 60.1725 11.2534 60.1389 11.4813C60.1188 11.6557 60.1155 11.8065 60.1289 11.9339C60.1423 12.0546 60.2093 12.115 60.33 12.115C60.4574 12.115 60.672 12.0144 60.9737 11.8132C61.0609 11.7596 61.1212 11.7462 61.1547 11.773C61.195 11.7998 61.2084 11.8468 61.195 11.9138C61.1815 11.9742 61.1447 12.0244 61.0843 12.0647C60.4809 12.4468 60.0819 12.5206 59.8875 12.2859C59.6931 12.0446 59.6428 11.6356 59.7366 11.0589C59.5958 11.0723 59.3846 11.193 59.103 11.421C58.8214 11.6423 58.5164 11.9004 58.1878 12.1954C57.8995 12.4502 57.6246 12.6849 57.3631 12.8994C57.1016 13.114 56.8804 13.2682 56.6993 13.3621C56.5652 13.4224 56.4512 13.4224 56.3574 13.3621C56.2635 13.3017 56.2367 13.2011 56.2769 13.0603Z" fill="black"/>
</svg>
